<?xml version="1.0" encoding="UTF-8" standalone="no"?>
<svg
   xmlns:dc="http://purl.org/dc/elements/1.1/"
   xmlns:cc="http://creativecommons.org/ns#"
   xmlns:rdf="http://www.w3.org/1999/02/22-rdf-syntax-ns#"
   xmlns:svg="http://www.w3.org/2000/svg"
   xmlns="http://www.w3.org/2000/svg"
   xmlns:xlink="http://www.w3.org/1999/xlink"
   xmlns:sodipodi="http://sodipodi.sourceforge.net/DTD/sodipodi-0.dtd"
   xmlns:inkscape="http://www.inkscape.org/namespaces/inkscape"
   width="800"
   height="800"
   viewBox="0 0 211.66666 211.66667"
   version="1.1"
   id="svg8"
   inkscape:version="1.1-dev (d42f299, 2020-04-20)"
   sodipodi:docname="clip.svg">
  <defs
     id="defs2">
    <linearGradient
       gradientTransform="translate(-45.731988)"
       gradientUnits="userSpaceOnUse"
       y2="567.44482"
       x2="646.00867"
       y1="474.58405"
       x1="646.00867"
       id="linearGradient2051"
       xlink:href="#linearGradient2049"
       inkscape:collect="always" />
    <linearGradient
       id="linearGradient2049"
       inkscape:collect="always">
      <stop
         id="stop2045"
         offset="0"
         style="stop-color:#c7c6c1;stop-opacity:1" />
      <stop
         style="stop-color:#08090e;stop-opacity:1;"
         offset="0.03581998"
         id="stop2065" />
      <stop
         style="stop-color:#bbc2d4;stop-opacity:1"
         offset="0.09464459"
         id="stop2063" />
      <stop
         style="stop-color:#06090e;stop-opacity:1"
         offset="0.16088754"
         id="stop2053" />
      <stop
         id="stop2057"
         offset="0.35998499"
         style="stop-color:#0a0d11;stop-opacity:1;" />
      <stop
         id="stop2055"
         offset="0.82343519"
         style="stop-color:#3d3e42;stop-opacity:1" />
      <stop
         id="stop2047"
         offset="1"
         style="stop-color:#201e20;stop-opacity:1" />
    </linearGradient>
    <linearGradient
       gradientUnits="userSpaceOnUse"
       y2="561.55402"
       x2="636.57458"
       y1="361.66074"
       x1="636.57458"
       id="linearGradient2205"
       xlink:href="#linearGradient2213"
       inkscape:collect="always" />
    <linearGradient
       inkscape:collect="always"
       id="linearGradient2213">
      <stop
         style="stop-color:#757575;stop-opacity:1"
         offset="0"
         id="stop2207" />
      <stop
         id="stop2217"
         offset="0.0628594"
         style="stop-color:#9e9e9e;stop-opacity:1;" />
      <stop
         style="stop-color:#9e9e9e;stop-opacity:1;"
         offset="0.12098633"
         id="stop2219" />
      <stop
         id="stop2223"
         offset="0.17911325"
         style="stop-color:#757575;stop-opacity:1" />
      <stop
         id="stop2221"
         offset="0.25323895"
         style="stop-color:#9e9e9e;stop-opacity:1;" />
      <stop
         id="stop2215"
         offset="0.55194336"
         style="stop-color:#9e9e9e;stop-opacity:1;" />
      <stop
         style="stop-color:#212121;stop-opacity:1"
         offset="1"
         id="stop2211" />
    </linearGradient>
    <linearGradient
       gradientUnits="userSpaceOnUse"
       y2="560.82422"
       x2="625.20392"
       y1="365.44601"
       x1="625.20392"
       id="linearGradient2199"
       xlink:href="#linearGradient2197"
       inkscape:collect="always" />
    <linearGradient
       id="linearGradient2197"
       inkscape:collect="always">
      <stop
         id="stop2193"
         offset="0"
         style="stop-color:#ffffff;stop-opacity:1" />
      <stop
         style="stop-color:#ffffff;stop-opacity:1;"
         offset="0.95028383"
         id="stop2201" />
      <stop
         id="stop2195"
         offset="1"
         style="stop-color:#9e9e9e;stop-opacity:1" />
    </linearGradient>
    <filter
       height="1.0173664"
       y="-0.0086831944"
       width="1.0388337"
       x="-0.019416843"
       id="filter2188"
       style="color-interpolation-filters:sRGB"
       inkscape:collect="always">
      <feGaussianBlur
         id="feGaussianBlur2190"
         stdDeviation="0.70853775"
         inkscape:collect="always" />
    </filter>
    <linearGradient
       gradientUnits="userSpaceOnUse"
       y2="567.62793"
       x2="565.50299"
       y1="550.45422"
       x1="565.50299"
       id="linearGradient2073"
       xlink:href="#linearGradient2071"
       inkscape:collect="always" />
    <linearGradient
       id="linearGradient2071"
       inkscape:collect="always">
      <stop
         id="stop2067"
         offset="0"
         style="stop-color:#caccc7;stop-opacity:1" />
      <stop
         style="stop-color:#27201d;stop-opacity:1"
         offset="0.10916527"
         id="stop2081" />
      <stop
         style="stop-color:#27201d;stop-opacity:1"
         offset="0.18194155"
         id="stop2079" />
      <stop
         style="stop-color:#8794a5;stop-opacity:1"
         offset="0.2908448"
         id="stop2077" />
      <stop
         style="stop-color:#06090e;stop-opacity:1"
         offset="0.47688985"
         id="stop2075" />
      <stop
         id="stop2069"
         offset="1"
         style="stop-color:#1a1b2f;stop-opacity:1" />
    </linearGradient>
  </defs>
  <sodipodi:namedview
     id="base"
     pagecolor="#ffffff"
     bordercolor="#666666"
     borderopacity="1.0"
     inkscape:pageopacity="0.0"
     inkscape:pageshadow="2"
     inkscape:zoom="0.35355339"
     inkscape:cx="477.08537"
     inkscape:cy="717.25141"
     inkscape:document-units="px"
     inkscape:current-layer="layer1"
     showgrid="false"
     units="px"
     inkscape:pagecheckerboard="true"
     inkscape:snap-page="true"
     inkscape:window-width="1334"
     inkscape:window-height="739"
     inkscape:window-x="32"
     inkscape:window-y="0"
     inkscape:window-maximized="1" />
  <metadata
     id="metadata5">
    <rdf:RDF>
      <cc:Work
         rdf:about="">
        <dc:format>image/svg+xml</dc:format>
        <dc:type
           rdf:resource="http://purl.org/dc/dcmitype/StillImage" />
        <dc:title></dc:title>
        <cc:license
           rdf:resource="http://creativecommons.org/publicdomain/zero/1.0/" />
      </cc:Work>
      <cc:License
         rdf:about="http://creativecommons.org/publicdomain/zero/1.0/">
        <cc:permits
           rdf:resource="http://creativecommons.org/ns#Reproduction" />
        <cc:permits
           rdf:resource="http://creativecommons.org/ns#Distribution" />
        <cc:permits
           rdf:resource="http://creativecommons.org/ns#DerivativeWorks" />
      </cc:License>
    </rdf:RDF>
  </metadata>
  <g
     inkscape:label="Layer 1"
     inkscape:groupmode="layer"
     id="layer1"
     transform="translate(0,-85.333316)">
    <g
       transform="translate(-518.45588,-274.22806)"
       id="g2061">
      <path
         id="rect2015"
         style="opacity:1;fill:url(#linearGradient2051);fill-opacity:1;stroke:none;stroke-width:2.64583;stroke-linecap:round;stroke-linejoin:round;stroke-miterlimit:4;stroke-dasharray:none;stroke-opacity:0;paint-order:markers fill stroke;stop-color:#000000"
         d="m 555.49909,474.36755 c -1.87571,0 -3.38582,1.51011 -3.38582,3.38585 v 86.90994 c 0,1.87573 1.51011,3.38584 3.38582,3.38584 l 2.45102,-12.65195 h 31.78773 c 5.89365,0 6.45777,12.65195 12.98472,12.65195 h 43.1333 c 6.52698,0 7.09192,-12.55385 12.98474,-12.65195 h 31.78771 l 2.45102,12.65195 c 1.87573,0 3.38584,-1.51011 3.38584,-3.38584 V 477.7534 c 0,-1.87574 -1.51011,-3.38585 -3.38584,-3.38585 z"
         sodipodi:nodetypes="cssccsccsccsscc" />
      <g
         id="g2178">
        <path
           style="color:#000000;fill:url(#linearGradient2205);fill-opacity:1;stroke-width:7.9375"
           d="m 624.28936,362.74023 c -8.34777,0 -17.25279,3.47583 -24.93945,9.01368 -7.68666,5.53784 -14.20073,13.22721 -17.00391,22.29492 -1.72928,5.59387 0.57749,10.89021 2.93555,14.70898 4.61531,7.47433 11.74477,11.4943 14.92773,16.54883 1.93338,3.07019 3.38223,6.30165 3.20508,8.63672 l -0.004,0.0449 -0.002,0.0449 c 0,0 -2.73933,51.32236 -5.79297,76.39063 -1.61584,13.26505 -4.84765,39.79492 -4.84765,39.79492 -0.11033,0.90569 -0.77084,2.27581 -1.73047,3.23242 -0.95963,0.95661 -2.06482,1.41406 -2.79297,1.41406 h -9.86133 v 7.9375 h 9.86133 c 3.39172,0 6.27585,-1.61649 8.39648,-3.73046 2.12064,-2.11398 3.63243,-4.81092 4.00782,-7.89258 0,0 3.23181,-26.52987 4.84765,-39.79492 3.13608,-25.74507 5.82363,-76.68066 5.83203,-76.83985 0.41543,-5.47586 -2.22209,-10.00457 -4.40234,-13.4668 -4.66759,-7.41209 -11.76234,-11.42409 -14.89062,-16.49023 -1.64966,-2.67156 -2.65146,-6.42915 -2.10547,-8.19531 2.13594,-6.90934 7.50241,-13.47582 14.05859,-18.19922 6.55618,-4.7234 14.2574,-7.51563 20.30078,-7.51563 6.04338,0 13.7446,2.79223 20.30078,7.51563 6.55618,4.7234 11.92265,11.28988 14.0586,18.19922 0.54599,1.76617 -0.45581,5.52375 -2.10547,8.19531 -3.12828,5.06614 -10.22304,9.07814 -14.89063,16.49023 -2.18026,3.46224 -4.81774,7.99096 -4.40234,13.4668 0.008,0.15919 2.69792,51.09479 5.83398,76.83985 1.61586,13.26505 4.84766,39.79492 4.84766,39.79492 0.37539,3.08167 1.88522,5.77861 4.00586,7.89258 2.12064,2.11397 5.00477,3.73046 8.39648,3.73046 h 9.86133 v -7.9375 h -9.86133 c -0.72814,0 -1.83333,-0.45745 -2.79296,-1.41406 -0.95963,-0.95661 -1.62015,-2.32673 -1.73047,-3.23242 0,0 -3.2318,-26.52986 -4.84766,-39.79492 -3.05363,-25.06828 -5.79297,-76.39063 -5.79297,-76.39063 l -0.002,-0.0449 -0.004,-0.0449 c -0.17714,-2.33509 1.27171,-5.56654 3.20508,-8.63672 3.18297,-5.05453 10.31243,-9.0745 14.92773,-16.54883 2.35806,-3.81877 4.66482,-9.11512 2.93555,-14.70898 -2.80318,-9.06771 -9.31725,-16.75708 -17.0039,-22.29492 -7.68666,-5.53785 -16.5917,-9.01368 -24.93946,-9.01368 z"
           id="path2180" />
        <path
           d="m 622.79492,364.90625 c -8.9298,0.55337 -17.3581,4.68326 -24.2647,10.15831 -6.46639,5.13127 -11.85328,11.95278 -14.24893,19.93604 -0.86033,3.05061 -0.2678,6.30453 0.99006,9.15479 2.09976,5.04155 5.97465,9.03971 9.93954,12.67659 3.1527,2.91775 6.3498,5.95962 8.2631,9.87337 1.47989,2.78133 2.40176,5.96012 1.988,9.12965 -1.03014,16.00053 -1.93566,32.0103 -3.21882,47.99349 -0.99714,12.90053 -2.34228,25.77002 -3.96101,38.60691 -1.13329,9.32246 -2.2566,18.64792 -3.45558,27.96121 -0.39698,2.76788 -2.29072,5.34529 -4.99197,6.22814 -1.81254,0.67804 -3.75301,0.25195 -5.63031,0.35155 -1.23477,0.002 -2.46953,0.004 -3.7043,0.006 0,1.22917 0,2.45834 0,3.6875 3.39928,-0.0657 6.91065,0.29456 10.22029,-0.38746 4.37995,-1.31709 7.62608,-5.75602 7.97112,-10.25121 0.91003,-8.22887 1.98933,-16.44124 2.97824,-24.66207 1.74549,-14.17877 3.32921,-28.366 4.37885,-42.61424 1.27851,-16.10625 2.2551,-32.2666 3.13684,-48.37838 0.12,-2.29898 -0.22924,-4.61926 -1.16025,-6.73291 -1.60851,-3.97248 -4.14184,-7.52284 -7.02918,-10.66528 -3.36316,-3.57973 -7.37747,-6.56969 -10.26174,-10.5823 -1.97525,-2.90521 -3.35183,-6.4587 -2.90019,-10.01716 0.51549,-2.88323 2.10459,-5.4145 3.5254,-7.92383 5.21767,-8.28107 13.4286,-14.47397 22.55016,-17.87807 5.28508,-1.95985 11.14831,-2.60211 16.65442,-1.21514 7.3631,1.78538 14.13705,5.68613 19.70654,10.78457 4.56083,4.23579 8.36483,9.45721 10.30567,15.41411 0.91002,3.61275 -0.52987,7.33152 -2.42578,10.37304 -2.72242,4.19572 -6.90377,7.11271 -10.26196,10.72965 -3.06153,3.23717 -5.74866,6.92886 -7.38688,11.09584 -1.03066,2.6271 -1.40081,5.49305 -1.06266,8.29488 1.6606,27.10382 3.16311,54.25128 6.51288,81.19983 1.37565,11.53111 2.7562,23.06401 4.27232,34.57642 1.03334,4.87409 5.59822,9.00879 10.69348,8.87039 2.38682,-0.0204 4.77367,-0.0269 7.16055,-0.017 0,-1.23567 0,-2.47135 0,-3.70703 -2.96421,-0.061 -5.95597,0.18765 -8.89974,-0.22347 -2.9421,-0.73637 -5.00638,-3.56369 -5.50846,-6.46012 -1.85796,-16.00171 -4.01682,-31.97299 -5.66725,-48.00031 -1.55434,-15.42623 -2.64118,-30.89845 -3.63214,-46.37087 -0.44996,-7.50679 -0.93372,-15.01114 -1.28701,-22.51991 0.19524,-3.99165 2.30181,-7.57906 4.61746,-10.71635 3.7105,-4.70933 8.89265,-8.10953 12.3694,-12.97893 2.43734,-3.2859 4.36576,-7.00812 4.59846,-11.15469 0.1329,-3.8413 -1.67778,-7.38973 -3.45552,-10.67881 -4.97286,-8.75429 -13.12993,-15.3979 -22.20153,-19.5731 -5.03656,-2.27985 -10.6653,-3.66066 -16.21687,-3.39375 z"
           style="color:#000000;mix-blend-mode:normal;fill:url(#linearGradient2199);fill-opacity:1;stroke-width:7.9375;filter:url(#filter2188)"
           id="path2121" />
      </g>
      <path
         id="rect2017"
         style="opacity:1;fill:url(#linearGradient2073);fill-opacity:1;stroke:none;stroke-width:2.64583;stroke-linecap:round;stroke-linejoin:round;stroke-miterlimit:4;stroke-dasharray:none;stroke-opacity:0;paint-order:markers fill stroke;stop-color:#000000"
         d="m 552.80417,550.92 c -1.87571,0 -3.38584,3.39403 -3.38584,7.61037 v 1.90791 c 0,4.21638 1.51013,7.6109 3.38584,7.6109 h 24.95196 c 0.60968,0 1.92614,-0.7488 2.64843,-1.60247 2.81408,-3.32621 9.3219,-11.37973 9.3219,-12.59047 0,-2.76053 -0.92453,-2.93624 -1.43867,-2.93624 z m 107.48646,0 c -0.51414,0 -1.43868,0.17571 -1.43868,2.93624 0,1.21074 6.50785,9.26426 9.32191,12.59047 0.72229,0.8537 2.03875,1.60247 2.64843,1.60247 h 24.95198 c 1.87571,0 3.38582,-3.39452 3.38582,-7.6109 v -1.90791 c 0,-4.21637 -1.51011,-7.61037 -3.38582,-7.61037 z m -45.23754,3.27576 c -8.237,0 -8.79316,13.85342 -12.33053,13.85342 h 43.1333 c -3.53737,0 -4.0935,-13.85342 -12.33051,-13.85342 z"
         sodipodi:nodetypes="ssssssssssssssssssccccc" />
    </g>
  </g>
</svg>
